<svg preserveAspectRatio="none" overflow="visible" style="display: block;" width="30" height="30" viewBox="0 0 30 30" fill="none" xmlns="http://www.w3.org/2000/svg">
<g id="icon/settings">
<path id="Vector" d="M12.7 3.2H17.3L18 6.2C18.7849 6.5394 19.5241 6.97616 20.2 7.5L23.2 6.6L25.5 10.6L23.3 12.7C23.4131 13.563 23.4131 14.437 23.3 15.3L25.5 17.4L23.2 21.4L20.2 20.5C19.5241 21.0238 18.7849 21.4606 18 21.8L17.3 24.8H12.7L12 21.8C11.2151 21.4606 10.4759 21.0238 9.8 20.5L6.8 21.4L4.5 17.4L6.7 15.3C6.58685 14.437 6.58685 13.563 6.7 12.7L4.5 10.6L6.8 6.6L9.8 7.5C10.4759 6.97616 11.2151 6.5394 12 6.2L12.7 3.2Z" stroke="#303034" stroke-width="1.7" stroke-linejoin="round"/>
<path id="Vector_2" d="M15 19C17.2091 19 19 17.2091 19 15C19 12.7909 17.2091 11 15 11C12.7909 11 11 12.7909 11 15C11 17.2091 12.7909 19 15 19Z" stroke="#303034" stroke-width="1.7"/>
</g>
</svg>
